<svg width="16" height="17" viewBox="0 0 16 17" fill="none" xmlns="http://www.w3.org/2000/svg">
<path fill-rule="evenodd" clip-rule="evenodd" d="M8.704 3.23447C8.31168 2.84575 7.67853 2.84866 7.2898 3.24098C6.90108 3.6333 6.904 4.26646 7.29632 4.65518L10.2368 7.56868H3.3335C2.78121 7.56868 2.3335 8.01639 2.3335 8.56868C2.3335 9.12096 2.78121 9.56868 3.3335 9.56868H10.2368L7.29632 12.4822C6.904 12.8709 6.90108 13.5041 7.2898 13.8964C7.67853 14.2887 8.31168 14.2916 8.704 13.9029L13.3703 9.27944L13.3707 9.27904C13.5602 9.09124 13.6668 8.83549 13.6668 8.56868C13.6668 8.30186 13.5602 8.04611 13.3707 7.85832L13.3698 7.85746L8.704 3.23447Z" fill="#22A75D"/>
</svg>
