<svg width="20" height="20" viewBox="0 0 20 20" fill="none" xmlns="http://www.w3.org/2000/svg">
<g clip-path="url(#clip0_20_275)">
<path d="M10.3998 0.799805C5.0958 0.799805 0.799805 5.0238 0.799805 10.2334C0.799805 14.4022 3.5502 17.9374 7.3638 19.1838C7.8438 19.2726 8.0198 18.9806 8.0198 18.7302C8.0198 18.5062 8.01181 17.9126 8.0078 17.1262C5.3374 17.695 4.7742 15.8606 4.7742 15.8606C4.3374 14.7718 3.7062 14.4806 3.7062 14.4806C2.8366 13.8958 3.7734 13.9078 3.7734 13.9078C4.7374 13.9734 5.2438 14.8798 5.2438 14.8798C6.0998 16.3222 7.491 15.9054 8.0398 15.6646C8.1262 15.0542 8.3734 14.639 8.64781 14.403C6.51581 14.167 4.275 13.3558 4.275 9.74141C4.275 8.71181 4.647 7.8702 5.263 7.21021C5.155 6.97181 4.831 6.01261 5.347 4.71341C5.347 4.71341 6.151 4.4606 7.987 5.6806C8.755 5.471 9.571 5.36701 10.387 5.36221C11.203 5.36701 12.019 5.471 12.787 5.6806C14.611 4.4606 15.415 4.71341 15.415 4.71341C15.931 6.01261 15.607 6.97181 15.511 7.21021C16.123 7.8702 16.495 8.71181 16.495 9.74141C16.495 13.3654 14.251 14.163 12.115 14.395C12.451 14.6782 12.763 15.2566 12.763 16.1406C12.763 17.403 12.751 18.4174 12.751 18.7238C12.751 18.971 12.919 19.2662 13.411 19.1718C17.2518 17.9334 19.9998 14.3958 19.9998 10.2334C19.9998 5.0238 15.7014 0.799805 10.3998 0.799805Z" fill="white"/>
</g>
<defs>
<clipPath id="clip0_20_275">
<rect width="19.2" height="19.2" fill="white" transform="translate(0.799805 0.399902)"/>
</clipPath>
</defs>
</svg>
