<svg width="127" height="132" viewBox="0 0 127 132" fill="none" xmlns="http://www.w3.org/2000/svg">
<g filter="url(#filter0_d_185_72)">
<path d="M102 51C102 73.6437 83.6437 92 61 92C20 92 20 92 20 51C20 28.3563 38.3563 10 61 10C83.6437 10 102 28.3563 102 51Z" fill="#2278D4"/>
</g>
<path d="M59.4492 60.2705L62.6992 64.4727H58.4844L56.834 62.3525C55.4714 63.0973 53.9521 63.4697 52.2764 63.4697C49.4749 63.4697 47.1475 62.5049 45.2939 60.5752C43.4404 58.637 42.5137 56.3307 42.5137 53.6562C42.5137 51.8704 42.9453 50.2327 43.8086 48.7432C44.6719 47.2451 45.8568 46.056 47.3633 45.1758C48.8783 44.2956 50.5033 43.8555 52.2383 43.8555C54.8874 43.8555 57.1598 44.8118 59.0557 46.7246C60.96 48.6374 61.9121 50.9691 61.9121 53.7197C61.9121 56.2503 61.0911 58.4339 59.4492 60.2705ZM57.2275 57.4014C57.9808 56.2842 58.3574 55.0485 58.3574 53.6943C58.3574 51.9255 57.7607 50.4232 56.5674 49.1875C55.374 47.9518 53.931 47.334 52.2383 47.334C50.4948 47.334 49.0348 47.9349 47.8584 49.1367C46.682 50.3385 46.0938 51.8662 46.0938 53.7197C46.0938 55.7848 46.8343 57.4183 48.3154 58.6201C49.4749 59.5596 50.791 60.0293 52.2637 60.0293C53.11 60.0293 53.9056 59.8643 54.6504 59.5342L51.3115 55.2305H55.5518L57.2275 57.4014ZM67.6631 50.3428H64.1973C64.2904 48.3285 64.9209 46.7458 66.0889 45.5947C67.2653 44.4352 68.7718 43.8555 70.6084 43.8555C71.7425 43.8555 72.7412 44.0967 73.6045 44.5791C74.4762 45.0531 75.1702 45.7428 75.6865 46.6484C76.2113 47.5456 76.4736 48.4596 76.4736 49.3906C76.4736 50.4993 76.1562 51.6927 75.5215 52.9707C74.8952 54.2487 73.7441 55.7594 72.0684 57.5029L69.9736 59.7119H76.626V63H63.6895V61.2988L69.4658 55.4082C70.8623 53.9948 71.7891 52.8607 72.2461 52.0059C72.7116 51.1426 72.9443 50.3639 72.9443 49.6699C72.9443 48.9505 72.7031 48.3581 72.2207 47.8926C71.7467 47.4186 71.1331 47.1816 70.3799 47.1816C69.6182 47.1816 68.9834 47.4652 68.4756 48.0322C67.9678 48.5993 67.6969 49.3695 67.6631 50.3428Z" fill="#0F1320"/>
<defs>
<filter id="filter0_d_185_72" x="-5" y="0" width="132" height="132" filterUnits="userSpaceOnUse" color-interpolation-filters="sRGB">
<feFlood flood-opacity="0" result="BackgroundImageFix"/>
<feColorMatrix in="SourceAlpha" type="matrix" values="0 0 0 0 0 0 0 0 0 0 0 0 0 0 0 0 0 0 127 0" result="hardAlpha"/>
<feOffset dy="15"/>
<feGaussianBlur stdDeviation="12.5"/>
<feColorMatrix type="matrix" values="0 0 0 0 0.133333 0 0 0 0 0.470588 0 0 0 0 0.831373 0 0 0 0.25 0"/>
<feBlend mode="normal" in2="BackgroundImageFix" result="effect1_dropShadow_185_72"/>
<feBlend mode="normal" in="SourceGraphic" in2="effect1_dropShadow_185_72" result="shape"/>
</filter>
</defs>
</svg>
