<svg width="127" height="132" viewBox="0 0 127 132" fill="none" xmlns="http://www.w3.org/2000/svg">
<g filter="url(#filter0_d_185_73)">
<path d="M102 51C102 73.6437 83.6437 92 61 92C20 92 20 92 20 51C20 28.3563 38.3563 10 61 10C83.6437 10 102 28.3563 102 51Z" fill="#FFD100"/>
</g>
<path d="M58.4492 60.2705L61.6992 64.4727H57.4844L55.834 62.3525C54.4714 63.0973 52.9521 63.4697 51.2764 63.4697C48.4749 63.4697 46.1475 62.5049 44.2939 60.5752C42.4404 58.637 41.5137 56.3307 41.5137 53.6562C41.5137 51.8704 41.9453 50.2327 42.8086 48.7432C43.6719 47.2451 44.8568 46.056 46.3633 45.1758C47.8783 44.2956 49.5033 43.8555 51.2383 43.8555C53.8874 43.8555 56.1598 44.8118 58.0557 46.7246C59.96 48.6374 60.9121 50.9691 60.9121 53.7197C60.9121 56.2503 60.0911 58.4339 58.4492 60.2705ZM56.2275 57.4014C56.9808 56.2842 57.3574 55.0485 57.3574 53.6943C57.3574 51.9255 56.7607 50.4232 55.5674 49.1875C54.374 47.9518 52.931 47.334 51.2383 47.334C49.4948 47.334 48.0348 47.9349 46.8584 49.1367C45.682 50.3385 45.0938 51.8662 45.0938 53.7197C45.0938 55.7848 45.8343 57.4183 47.3154 58.6201C48.4749 59.5596 49.791 60.0293 51.2637 60.0293C52.11 60.0293 52.9056 59.8643 53.6504 59.5342L50.3115 55.2305H54.5518L56.2275 57.4014ZM67.0693 48.9336H63.6543C63.832 47.554 64.3271 46.4453 65.1396 45.6074C66.2738 44.4395 67.6999 43.8555 69.418 43.8555C70.9499 43.8555 72.2321 44.3421 73.2646 45.3154C74.3057 46.2887 74.8262 47.444 74.8262 48.7812C74.8262 49.6107 74.5977 50.3682 74.1406 51.0537C73.6921 51.7393 73.0361 52.2936 72.1729 52.7168C73.307 53.0553 74.1914 53.6478 74.8262 54.4941C75.4694 55.332 75.791 56.3223 75.791 57.4648C75.791 59.1406 75.1732 60.5625 73.9375 61.7305C72.7018 62.89 71.1276 63.4697 69.2148 63.4697C67.4036 63.4697 65.9268 62.9238 64.7842 61.832C63.6416 60.7318 63.0153 59.238 62.9053 57.3506H66.4219C66.5742 58.3154 66.9085 59.0348 67.4248 59.5088C67.9495 59.9743 68.6097 60.207 69.4053 60.207C70.2347 60.207 70.9202 59.9404 71.4619 59.4072C72.012 58.874 72.2871 58.2223 72.2871 57.4521C72.2871 56.6058 71.9189 55.8906 71.1826 55.3066C70.4463 54.7227 69.3841 54.4222 67.9961 54.4053V51.3584C68.8509 51.2907 69.4857 51.1595 69.9004 50.9648C70.3236 50.7617 70.6494 50.4867 70.8779 50.1396C71.1149 49.7926 71.2334 49.4245 71.2334 49.0352C71.2334 48.5273 71.0557 48.1084 70.7002 47.7783C70.3447 47.4398 69.8792 47.2705 69.3037 47.2705C68.7959 47.2705 68.3346 47.4271 67.9199 47.7402C67.5052 48.0449 67.2217 48.4427 67.0693 48.9336Z" fill="#0F1320"/>
<defs>
<filter id="filter0_d_185_73" x="-5" y="0" width="132" height="132" filterUnits="userSpaceOnUse" color-interpolation-filters="sRGB">
<feFlood flood-opacity="0" result="BackgroundImageFix"/>
<feColorMatrix in="SourceAlpha" type="matrix" values="0 0 0 0 0 0 0 0 0 0 0 0 0 0 0 0 0 0 127 0" result="hardAlpha"/>
<feOffset dy="15"/>
<feGaussianBlur stdDeviation="12.5"/>
<feColorMatrix type="matrix" values="0 0 0 0 1 0 0 0 0 0.819608 0 0 0 0 0 0 0 0 0.25 0"/>
<feBlend mode="normal" in2="BackgroundImageFix" result="effect1_dropShadow_185_73"/>
<feBlend mode="normal" in="SourceGraphic" in2="effect1_dropShadow_185_73" result="shape"/>
</filter>
</defs>
</svg>
