<svg width="127" height="132" viewBox="0 0 127 132" fill="none" xmlns="http://www.w3.org/2000/svg">
<g filter="url(#filter0_d_185_71)">
<path d="M102 51C102 73.6437 83.6437 92 61 92C20 92 20 92 20 51C20 28.3563 38.3563 10 61 10C83.6437 10 102 28.3563 102 51Z" fill="#22A75D"/>
</g>
<path d="M60.4492 60.2705L63.6992 64.4727H59.4844L57.834 62.3525C56.4714 63.0973 54.9521 63.4697 53.2764 63.4697C50.4749 63.4697 48.1475 62.5049 46.2939 60.5752C44.4404 58.637 43.5137 56.3307 43.5137 53.6562C43.5137 51.8704 43.9453 50.2327 44.8086 48.7432C45.6719 47.2451 46.8568 46.056 48.3633 45.1758C49.8783 44.2956 51.5033 43.8555 53.2383 43.8555C55.8874 43.8555 58.1598 44.8118 60.0557 46.7246C61.96 48.6374 62.9121 50.9691 62.9121 53.7197C62.9121 56.2503 62.0911 58.4339 60.4492 60.2705ZM58.2275 57.4014C58.9808 56.2842 59.3574 55.0485 59.3574 53.6943C59.3574 51.9255 58.7607 50.4232 57.5674 49.1875C56.374 47.9518 54.931 47.334 53.2383 47.334C51.4948 47.334 50.0348 47.9349 48.8584 49.1367C47.682 50.3385 47.0938 51.8662 47.0938 53.7197C47.0938 55.7848 47.8343 57.4183 49.3154 58.6201C50.4749 59.5596 51.791 60.0293 53.2637 60.0293C54.11 60.0293 54.9056 59.8643 55.6504 59.5342L52.3115 55.2305H56.5518L58.2275 57.4014ZM68.4092 44.3252H73.7285V63H70.1992V47.6641H66.3525L68.4092 44.3252Z" fill="#0F1320"/>
<defs>
<filter id="filter0_d_185_71" x="-5" y="0" width="132" height="132" filterUnits="userSpaceOnUse" color-interpolation-filters="sRGB">
<feFlood flood-opacity="0" result="BackgroundImageFix"/>
<feColorMatrix in="SourceAlpha" type="matrix" values="0 0 0 0 0 0 0 0 0 0 0 0 0 0 0 0 0 0 127 0" result="hardAlpha"/>
<feOffset dy="15"/>
<feGaussianBlur stdDeviation="12.5"/>
<feColorMatrix type="matrix" values="0 0 0 0 0.133333 0 0 0 0 0.654902 0 0 0 0 0.364706 0 0 0 0.25 0"/>
<feBlend mode="normal" in2="BackgroundImageFix" result="effect1_dropShadow_185_71"/>
<feBlend mode="normal" in="SourceGraphic" in2="effect1_dropShadow_185_71" result="shape"/>
</filter>
</defs>
</svg>
