<svg width="127" height="132" viewBox="0 0 127 132" fill="none" xmlns="http://www.w3.org/2000/svg">
<g filter="url(#filter0_d_185_74)">
<path d="M102 51C102 73.6437 83.6437 92 61 92C20 92 20 92 20 51C20 28.3563 38.3563 10 61 10C83.6437 10 102 28.3563 102 51Z" fill="#E20613"/>
</g>
<path d="M57.4492 60.2705L60.6992 64.4727H56.4844L54.834 62.3525C53.4714 63.0973 51.9521 63.4697 50.2764 63.4697C47.4749 63.4697 45.1475 62.5049 43.2939 60.5752C41.4404 58.637 40.5137 56.3307 40.5137 53.6562C40.5137 51.8704 40.9453 50.2327 41.8086 48.7432C42.6719 47.2451 43.8568 46.056 45.3633 45.1758C46.8783 44.2956 48.5033 43.8555 50.2383 43.8555C52.8874 43.8555 55.1598 44.8118 57.0557 46.7246C58.96 48.6374 59.9121 50.9691 59.9121 53.7197C59.9121 56.2503 59.0911 58.4339 57.4492 60.2705ZM55.2275 57.4014C55.9808 56.2842 56.3574 55.0485 56.3574 53.6943C56.3574 51.9255 55.7607 50.4232 54.5674 49.1875C53.374 47.9518 51.931 47.334 50.2383 47.334C48.4948 47.334 47.0348 47.9349 45.8584 49.1367C44.682 50.3385 44.0938 51.8662 44.0938 53.7197C44.0938 55.7848 44.8343 57.4183 46.3154 58.6201C47.4749 59.5596 48.791 60.0293 50.2637 60.0293C51.11 60.0293 51.9056 59.8643 52.6504 59.5342L49.3115 55.2305H53.5518L55.2275 57.4014ZM69.7383 43.8555H73.293V55.8779H74.9561V59.166H73.293V63H69.8145V59.166H61.6641V55.8779L69.7383 43.8555ZM69.8145 55.8779V49.6191L65.5488 55.8779H69.8145Z" fill="#0F1320"/>
<defs>
<filter id="filter0_d_185_74" x="-5" y="0" width="132" height="132" filterUnits="userSpaceOnUse" color-interpolation-filters="sRGB">
<feFlood flood-opacity="0" result="BackgroundImageFix"/>
<feColorMatrix in="SourceAlpha" type="matrix" values="0 0 0 0 0 0 0 0 0 0 0 0 0 0 0 0 0 0 127 0" result="hardAlpha"/>
<feOffset dy="15"/>
<feGaussianBlur stdDeviation="12.5"/>
<feColorMatrix type="matrix" values="0 0 0 0 0.886275 0 0 0 0 0.0235294 0 0 0 0 0.0745098 0 0 0 0.25 0"/>
<feBlend mode="normal" in2="BackgroundImageFix" result="effect1_dropShadow_185_74"/>
<feBlend mode="normal" in="SourceGraphic" in2="effect1_dropShadow_185_74" result="shape"/>
</filter>
</defs>
</svg>
