<svg width="20" height="20" viewBox="0 0 20 20" fill="none" xmlns="http://www.w3.org/2000/svg">
<g clip-path="url(#clip0_9_139)">
<path d="M17.7708 7.75699C17.1391 7.75699 16.5833 8.02283 16.1741 8.43699C14.67 7.38033 12.6416 6.70033 10.3941 6.62783L11.5616 1.28949L15.2791 2.13616C15.2791 3.05949 16.0208 3.81366 16.9308 3.81366C17.8583 3.81366 18.6041 3.03949 18.6041 2.11533C18.6041 1.19116 17.8633 0.416992 16.9316 0.416992C16.2825 0.416992 15.7225 0.814492 15.4433 1.35783L11.3375 0.434492C11.1308 0.378659 10.9283 0.528659 10.8733 0.738659L9.59164 6.62366C7.36164 6.71783 5.35497 7.39699 3.8458 8.45449C3.43664 8.02283 2.85914 7.75699 2.22747 7.75699C-0.115865 7.75699 -0.883365 10.9478 1.26247 12.0387C1.18664 12.3762 1.15247 12.7362 1.15247 13.0953C1.15247 16.6795 5.13164 19.5837 10.0175 19.5837C14.9241 19.5837 18.9033 16.6795 18.9033 13.0953C18.9033 12.7362 18.8658 12.3595 18.7733 12.0212C20.8758 10.9262 20.1016 7.75866 17.7708 7.75699ZM4.66747 12.2653C4.66747 11.3245 5.40914 10.567 6.3408 10.567C7.2508 10.567 7.9933 11.3195 7.9933 12.2653C7.9933 13.1895 7.25164 13.9428 6.3408 13.9428C5.4133 13.947 4.66747 13.1895 4.66747 12.2653ZM13.7 16.2637C12.1658 17.8203 7.83664 17.8203 6.30164 16.2637C6.13247 16.1137 6.13247 15.8487 6.30164 15.6778C6.44914 15.5278 6.7108 15.5278 6.8583 15.6778C8.02997 16.897 11.9166 16.9178 13.1391 15.6778C13.2866 15.5278 13.5483 15.5278 13.6958 15.6778C13.8683 15.8495 13.8683 16.1145 13.7 16.2637ZM13.6658 13.9462C12.7558 13.9462 12.0141 13.1937 12.0141 12.2703C12.0141 11.3295 12.7558 10.572 13.6658 10.572C14.5933 10.572 15.3391 11.3245 15.3391 12.2703C15.335 13.1895 14.5933 13.9462 13.6658 13.9462Z" fill="white"/>
</g>
<defs>
<clipPath id="clip0_9_139">
<rect width="20" height="20" fill="white"/>
</clipPath>
</defs>
</svg>
